<?xml version="1.0" standalone="no"?>
<!DOCTYPE svg PUBLIC "-//W3C//DTD SVG 20010904//EN"
 "http://www.w3.org/TR/2001/REC-SVG-20010904/DTD/svg10.dtd">
<svg version="1.0" xmlns="http://www.w3.org/2000/svg"
 width="2048.000000pt" height="2048.000000pt" viewBox="0 0 2048.000000 2048.000000"
 preserveAspectRatio="xMidYMid meet">

<g transform="translate(0.000000,2048.000000) scale(0.100000,-0.100000)"
fill="#000000" stroke="none">
<path d="M10050 17793 c-134 -21 -284 -71 -385 -128 -36 -20 -909 -599 -1943
-1288 -1033 -689 -1995 -1329 -2137 -1423 -143 -94 -597 -395 -1010 -669 -412
-274 -966 -641 -1230 -816 -772 -511 -787 -523 -898 -691 -94 -142 -139 -268
-156 -434 -49 -485 274 -928 749 -1026 77 -16 121 -19 235 -15 168 5 272 32
405 104 110 59 950 618 1065 708 40 31 128 85 139 85 3 0 5 -1209 4 -2687 l-3
-2688 -65 -7 c-338 -37 -618 -271 -699 -582 -21 -79 -21 -95 -21 -1448 0
-1213 2 -1378 16 -1446 33 -160 101 -280 224 -395 125 -117 239 -173 401 -196
84 -12 7418 -21 9604 -11 l1300 5 94 33 c250 87 409 249 502 512 l23 65 6
1040 c3 572 3 1211 0 1420 -7 369 -7 382 -32 455 -68 208 -263 418 -453 489
-56 21 -188 55 -257 66 l-36 6 -4 2638 c-2 1451 -1 2662 0 2690 3 32 9 51 16
51 7 0 44 -25 82 -55 38 -31 107 -79 154 -107 47 -27 114 -72 150 -98 181
-132 786 -527 865 -565 129 -63 188 -76 356 -82 114 -4 164 -2 229 11 405 82
694 408 742 835 37 331 -104 667 -362 866 -70 54 -249 174 -1585 1067 -605
405 -1192 798 -1305 874 l-205 139 -5 965 c-4 705 -8 970 -17 985 -6 11 -23
31 -38 45 l-27 25 -646 3 c-628 2 -648 2 -679 -17 -70 -44 -68 -24 -71 -541
-2 -256 -5 -466 -6 -468 -2 -1 -221 143 -487 320 -1380 920 -1823 1212 -1909
1256 -181 95 -341 133 -545 131 -66 -1 -131 -4 -145 -6z m272 -2156 c35 -18
391 -251 792 -518 1365 -906 3230 -2148 3404 -2265 l172 -118 -1 -1570 c0
-864 -4 -1560 -9 -1546 -4 14 -20 66 -35 115 -63 210 -115 262 -352 349 -70
26 -71 28 -91 79 -10 29 -27 84 -36 122 -10 43 -30 90 -51 121 -41 59 -46 109
-16 158 33 54 53 143 54 239 0 76 -4 101 -23 142 -18 40 -24 76 -30 175 -7
122 -37 255 -73 318 -24 41 -116 129 -154 145 -71 30 -108 48 -138 64 -72 41
-259 26 -455 -35 -158 -49 -170 -56 -251 -134 -77 -74 -88 -105 -63 -187 9
-33 16 -95 17 -159 l1 -106 -29 -20 c-83 -59 -105 -105 -105 -219 0 -70 15
-120 49 -164 19 -23 20 -35 14 -147 -5 -100 -3 -132 11 -171 9 -27 16 -57 16
-67 0 -35 -98 -86 -277 -144 -196 -63 -269 -104 -331 -183 -72 -90 -131 -240
-176 -446 -34 -154 -179 -691 -206 -759 -13 -36 -10 -40 80 -94 l65 -39 -2
-64 c-1 -35 -4 -217 -5 -404 -3 -335 -4 -341 -27 -385 -56 -106 -91 -250 -91
-376 0 -178 51 -323 160 -452 l61 -73 -585 2 c-323 1 -586 2 -586 3 0 1 31 33
69 72 118 121 174 263 173 440 -1 179 -89 357 -226 457 -29 22 -15 40 66 82
82 42 120 73 153 126 49 76 55 122 56 423 0 304 8 427 27 434 15 5 16 247 2
452 -17 235 -56 363 -139 453 -34 37 -40 51 -46 107 -5 44 -18 86 -41 130 -27
53 -33 72 -28 102 5 30 0 48 -25 92 -35 62 -26 84 18 42 15 -14 32 -26 38 -26
6 0 17 -16 23 -35 17 -52 34 -33 26 29 -4 28 -7 70 -6 94 1 35 -5 50 -29 77
-16 19 -42 55 -56 80 -24 40 -26 51 -20 105 9 78 -6 119 -67 187 -40 44 -49
60 -46 85 4 40 34 47 50 12 11 -23 28 -33 28 -16 0 34 -29 91 -66 133 -42 48
-44 52 -44 112 0 77 -30 144 -100 220 -26 29 -58 76 -70 105 -36 84 -147 169
-245 186 -21 4 -57 17 -79 28 -33 17 -57 20 -150 19 -97 -2 -116 -5 -155 -26
-24 -14 -49 -25 -56 -25 -6 0 -57 -22 -113 -49 -86 -42 -106 -57 -140 -103
-22 -29 -54 -82 -72 -118 -18 -35 -52 -89 -76 -118 -39 -48 -44 -59 -44 -106
0 -32 -10 -77 -24 -114 -13 -34 -27 -75 -31 -91 -3 -16 -22 -46 -41 -66 -19
-20 -37 -48 -40 -63 -3 -15 -12 -40 -21 -57 -8 -16 -13 -43 -11 -60 2 -24 8
-31 31 -33 35 -4 32 -18 -24 -116 -42 -74 -44 -103 -6 -92 66 18 67 18 67 1 0
-26 -87 -133 -139 -170 -42 -31 -77 -72 -69 -80 2 -2 34 10 71 26 38 17 71 28
74 25 13 -13 -10 -39 -51 -57 -45 -20 -56 -34 -56 -74 0 -16 7 -25 20 -27 20
-3 20 -4 3 -38 -16 -29 -29 -38 -96 -61 -177 -62 -265 -180 -320 -429 -18 -82
-21 -127 -20 -325 1 -141 5 -241 12 -258 14 -36 14 -145 0 -428 -13 -247 -7
-319 32 -393 30 -58 55 -82 132 -129 110 -65 118 -94 46 -172 -48 -52 -101
-159 -122 -245 -65 -262 7 -505 201 -679 l67 -61 -427 0 -426 0 18 48 c10 26
21 65 24 87 10 57 -19 189 -55 251 -43 77 -140 194 -203 248 -69 60 -96 102
-96 152 0 22 -11 78 -24 125 -21 74 -23 97 -16 160 5 46 5 93 -2 123 -8 37 -7
63 2 101 7 29 10 68 6 86 -4 19 -11 84 -16 144 -5 61 -11 124 -14 140 -7 35
-32 461 -41 675 -17 424 -51 579 -154 706 -46 58 -102 89 -265 148 -55 20
-108 43 -117 52 -21 19 -29 57 -20 92 4 14 4 51 -1 81 -4 31 -12 134 -18 229
-7 112 -19 201 -32 250 -11 43 -25 102 -30 132 -36 209 -86 377 -140 468 -35
61 -223 253 -273 279 -19 11 -78 20 -166 26 -161 12 -202 3 -314 -71 -94 -63
-142 -107 -180 -167 -54 -86 -72 -143 -119 -375 -25 -124 -59 -284 -75 -356
-17 -72 -32 -147 -32 -165 -5 -84 11 -401 21 -418 5 -11 10 -24 10 -29 0 -12
-84 -57 -165 -87 -84 -32 -128 -62 -166 -113 -45 -61 -76 -166 -94 -315 -8
-67 18 -591 42 -842 9 -93 17 -199 19 -235 3 -36 11 -137 20 -225 29 -312 51
-393 126 -468 l49 -49 -31 -47 c-49 -77 -72 -155 -77 -266 -6 -124 7 -196 52
-290 41 -86 131 -184 224 -244 l64 -41 -130 0 c-71 0 -183 3 -249 6 l-119 7 2
2936 c2 1614 5 2941 8 2948 2 7 865 586 1917 1286 2294 1527 2442 1625 2493
1648 66 30 142 25 217 -14z m534 -7311 c-7 -141 -22 -186 -62 -186 -37 0 -48
45 -39 173 6 96 11 123 40 187 18 41 37 91 41 110 13 57 26 -132 20 -284z
m3834 -263 l0 -538 -30 63 c-31 66 -111 159 -167 193 -38 23 -37 23 -62 180
-18 116 -18 117 3 145 88 120 165 316 166 419 0 39 2 41 43 57 23 8 43 16 45
17 1 0 2 -241 2 -536z m-3 -1230 c-3 -2 -52 -2 -111 -1 l-107 3 51 60 c66 77
112 154 141 235 l24 65 3 -179 c1 -98 1 -181 -1 -183z m-4392 -1388 c50 -10
76 -22 92 -39 l21 -25 -18 -73 c-26 -101 -111 -554 -160 -853 -22 -137 -43
-261 -46 -275 -3 -14 34 47 82 135 48 88 174 318 282 510 255 460 338 587 402
620 83 43 330 -12 330 -73 0 -10 -9 -42 -20 -72 -12 -30 -63 -203 -114 -385
-247 -867 -277 -1012 -224 -1049 49 -35 123 -3 195 82 33 39 48 71 71 148 67
225 193 601 212 632 29 47 73 62 177 62 109 0 133 -13 133 -69 0 -22 -33 -133
-76 -257 -116 -335 -153 -454 -160 -515 -6 -49 -4 -59 15 -78 27 -27 88 -28
139 -2 20 11 60 43 89 73 52 53 52 54 148 335 52 156 98 289 101 298 5 12 -2
15 -33 15 -77 0 -103 52 -69 135 19 43 42 55 113 55 l58 0 48 148 c70 215 77
229 134 254 50 22 171 36 217 24 32 -8 56 -32 56 -57 0 -11 -29 -98 -65 -194
-36 -96 -65 -176 -65 -177 0 -2 41 -3 91 -3 78 0 93 -3 105 -19 8 -11 14 -29
14 -40 0 -34 -39 -102 -66 -114 -14 -7 -67 -12 -118 -12 l-92 0 -99 -296 c-57
-170 -100 -318 -103 -349 -4 -48 -2 -56 23 -81 24 -24 32 -26 77 -21 27 4 69
17 92 31 61 36 140 123 174 191 28 55 161 446 212 623 28 98 42 106 165 100
148 -8 173 -37 137 -159 -11 -38 -18 -69 -16 -69 2 0 17 21 35 48 116 173 254
240 370 179 118 -63 118 -234 1 -324 -88 -67 -158 -54 -177 32 -8 40 -15 51
-37 59 -70 25 -180 -76 -258 -238 -48 -99 -153 -397 -185 -526 -26 -105 -35
-121 -79 -141 -50 -23 -116 -24 -185 -3 -62 18 -76 42 -68 122 l6 52 -51 -55
c-125 -138 -341 -175 -478 -82 -43 28 -80 91 -80 135 l0 32 -65 -69 c-44 -46
-89 -81 -138 -107 -70 -38 -75 -39 -172 -39 -84 0 -107 4 -142 22 -51 28 -81
65 -95 119 l-11 41 -61 -62 c-101 -103 -226 -149 -337 -126 -76 17 -114 44
-143 103 -50 99 -33 266 64 638 22 85 54 209 71 275 16 66 39 149 50 184 11
35 18 66 16 68 -2 2 -19 -25 -37 -59 -18 -35 -47 -88 -65 -118 -63 -106 -314
-588 -428 -820 -71 -144 -124 -240 -138 -248 -31 -19 -195 -34 -241 -21 -56
15 -60 28 -48 191 19 267 90 803 136 1031 9 43 14 80 12 82 -5 5 -288 -593
-506 -1065 -108 -235 -108 -235 -247 -235 -104 0 -145 17 -145 60 0 13 24 62
54 107 29 46 95 162 146 258 51 96 123 231 160 300 37 69 129 243 204 388 149
286 301 562 348 631 54 77 137 97 283 66z m-3538 -11 c216 -44 364 -161 414
-326 18 -57 21 -87 17 -159 -5 -78 -11 -100 -46 -173 -63 -132 -140 -205 -299
-285 l-83 -42 19 -37 c26 -51 39 -123 51 -292 25 -325 71 -429 243 -547 52
-36 59 -59 25 -90 -63 -58 -229 -70 -321 -23 -90 45 -164 151 -200 285 -19 69
-34 188 -42 330 -3 55 -11 151 -17 214 l-11 113 -51 -6 c-28 -3 -61 -6 -74 -6
-12 0 -24 -6 -27 -12 -2 -7 -30 -98 -63 -203 -84 -266 -129 -413 -142 -462
-15 -60 -51 -77 -155 -77 -48 0 -90 5 -105 13 -42 23 -70 53 -70 77 0 12 27
103 60 201 34 98 124 378 202 623 77 245 146 457 154 471 49 97 233 132 306
58 22 -21 28 -35 23 -51 -18 -67 -100 -324 -125 -395 -16 -45 -26 -84 -22 -86
16 -9 152 26 217 57 168 79 269 242 251 407 -19 183 -181 276 -416 240 -158
-25 -284 -86 -388 -188 -87 -86 -123 -165 -133 -292 -6 -87 -9 -97 -35 -119
-34 -30 -73 -24 -124 17 -59 47 -75 85 -75 173 1 72 4 83 48 171 98 193 311
351 548 406 111 26 125 28 257 30 70 0 142 -5 189 -15z m4986 -178 c42 -17 83
-66 98 -116 15 -48 -1 -120 -36 -166 -69 -91 -227 -99 -297 -16 -41 48 -52 94
-38 151 29 121 163 193 273 147z m-3893 -448 c51 -16 95 -49 135 -100 39 -50
75 -140 75 -188 0 -17 6 -33 13 -36 8 -3 57 9 109 26 52 16 107 30 121 30 19
0 49 24 119 93 143 144 258 193 437 185 67 -2 97 -9 135 -28 85 -43 140 -123
166 -243 8 -34 19 -57 26 -57 7 0 48 11 91 25 100 32 147 33 167 3 52 -73 -22
-127 -227 -168 -32 -6 -60 -17 -62 -23 -1 -7 -13 -55 -25 -107 -40 -172 -130
-332 -249 -442 -154 -143 -379 -187 -537 -105 -42 21 -102 90 -125 142 -31 70
-43 195 -30 294 10 68 50 212 77 278 3 7 -22 2 -63 -12 -37 -12 -86 -26 -108
-29 l-40 -7 -27 -110 c-44 -184 -147 -366 -265 -468 -100 -87 -255 -140 -376
-128 -98 10 -155 34 -213 92 -75 75 -89 123 -88 305 0 127 4 156 27 235 55
183 155 342 271 433 142 110 323 153 466 110z m6203 -10 c22 -7 55 -27 73 -45
l32 -32 16 24 c29 44 70 58 163 53 100 -5 139 -27 136 -74 -1 -16 -53 -184
-117 -373 -124 -367 -140 -434 -112 -476 32 -49 122 -29 195 44 28 28 68 28
76 0 8 -26 -47 -112 -113 -177 -132 -128 -340 -148 -436 -42 -33 36 -56 92
-56 134 0 13 -10 4 -31 -27 -39 -60 -98 -110 -169 -145 -48 -23 -67 -27 -145
-27 -104 0 -153 20 -204 82 -91 111 -92 343 -2 568 42 105 81 171 152 260 156
196 381 301 542 253z"/>
<path d="M7675 4612 c-110 -51 -218 -244 -260 -465 -34 -177 -1 -287 84 -287
111 1 237 163 295 380 l24 89 -28 6 c-47 10 -80 48 -80 92 1 47 16 68 64 88
35 15 37 18 31 48 -4 18 -12 38 -19 44 -21 22 -69 24 -111 5z"/>
<path d="M8775 4603 c-67 -35 -154 -142 -199 -246 -62 -142 -89 -365 -53 -434
60 -113 193 -67 291 100 30 51 90 211 100 269 6 35 5 37 -29 48 -43 14 -65 44
-65 88 0 38 33 77 74 88 32 8 35 40 5 78 -24 31 -76 35 -124 9z"/>
<path d="M13952 4612 c-162 -65 -332 -382 -332 -620 0 -68 2 -76 29 -103 16
-16 39 -29 51 -29 63 0 155 78 207 176 29 56 193 521 193 549 0 13 -68 46 -93
44 -6 0 -31 -8 -55 -17z"/>
</g>
</svg>
